<svg id="Capa_1" enable-background="new 0 0 512 512" height="512" viewBox="0 0 512 512" width="512" xmlns="http://www.w3.org/2000/svg"><g><g><path d="m371.952 9.693h-284.354c-44.238 0-80.1 35.862-80.1 80.1v332.415c0-44.238 35.862-80.1 80.1-80.1h292.365c4.424 0 8.01 3.586 8.01 8.01v-324.405c-.001-8.848-7.173-16.02-16.021-16.02z" fill="#fd8087"/><path d="m371.952 9.693h-32.04c8.848 0 16.02 7.172 16.02 16.02v41.051c0 4.002-2.439 7.624-6.175 9.056-51.733 19.819-88.561 69.996-88.561 128.616s36.828 108.797 88.561 128.616c3.737 1.432 6.175 5.054 6.175 9.056h24.03c4.424 0 8.01 3.586 8.01 8.01v-324.405c0-8.848-7.172-16.02-16.02-16.02z" fill="#fe646f"/><g><path d="m87.598 342.107h292.365c4.424 0 8.01 3.586 8.01 8.01v16.02c0 4.424-3.586 8.01-8.01 8.01h-291.559c-26.316 0-48.358 20.819-48.858 47.131-.511 26.924 21.242 48.989 48.051 48.989h292.365c4.424 0 8.01 3.586 8.01 8.01v16.02c0 4.424-3.586 8.01-8.01 8.01h-292.364c-44.238 0-80.1-35.862-80.1-80.1 0-44.238 35.861-80.1 80.1-80.1z" fill="#fe646f"/><g fill="#fd4755"><path d="m379.962 470.267h-216.564c-12.45 11.875-25.405 22.578-38.647 32.04h255.212c4.424 0 8.01-3.586 8.01-8.01v-16.02c-.001-4.423-3.587-8.01-8.011-8.01z"/><path d="m379.962 342.107h-131.861c-3.617 10.625-8.053 21.34-13.288 32.04h145.15c4.424 0 8.01-3.586 8.01-8.01v-16.02c-.001-4.423-3.587-8.01-8.011-8.01z"/></g><path d="m375.957 470.267v-96.12h-288.359c-26.5 0-48.06 21.56-48.06 48.06s21.56 48.06 48.06 48.06z" fill="#dff6fd"/><path d="m234.813 374.147c-15.2 31.064-37.11 61.978-65.162 90.03-2.067 2.067-4.155 4.09-6.253 6.09h212.56v-96.12z" fill="#c8effe"/></g><path d="m126.646 73.773h186.232c4.424 0 8.01 3.586 8.01 8.01v48.06c0 4.424-3.586 8.01-8.01 8.01h-186.232c-4.424 0-8.01-3.586-8.01-8.01v-48.06c0-4.424 3.586-8.01 8.01-8.01z" fill="#fea95c"/></g><g><circle cx="398.868" cy="204.436" fill="#dff6fd" r="105.632"/><path d="m454.77 114.801c10.134 16.214 15.997 35.372 15.997 55.902 0 58.339-47.293 105.632-105.632 105.632-20.53 0-39.688-5.863-55.902-15.997 18.663 29.861 51.826 49.73 89.635 49.73 58.339 0 105.632-47.293 105.632-105.632 0-37.809-19.869-70.972-49.73-89.635z" fill="#c8effe"/><path d="m407.57 144.459 11.946 24.206c1.413 2.864 4.146 4.849 7.306 5.308l26.713 3.882c7.959 1.157 11.137 10.938 5.378 16.551l-19.33 18.842c-2.287 2.229-3.331 5.441-2.791 8.589l4.563 26.605c1.36 7.927-6.961 13.972-14.079 10.229l-23.893-12.561c-2.827-1.486-6.204-1.486-9.031 0l-23.893 12.561c-7.119 3.743-15.439-2.302-14.08-10.229l4.563-26.605c.54-3.148-.504-6.36-2.791-8.589l-19.33-18.842c-5.759-5.614-2.581-15.395 5.378-16.551l26.713-3.882c3.161-.459 5.893-2.444 7.306-5.308l11.946-24.206c3.562-7.212 13.846-7.212 17.406 0z" fill="#ffe177"/></g><g><path d="m113.63 396.685c-4.142 0-7.5 3.358-7.5 7.5s3.358 7.5 7.5 7.5h146.182c4.143 0 7.5-3.358 7.5-7.5s-3.357-7.5-7.5-7.5z"/><path d="m291.852 411.685h32.04c4.143 0 7.5-3.358 7.5-7.5s-3.357-7.5-7.5-7.5h-32.04c-4.143 0-7.5 3.358-7.5 7.5s3.358 7.5 7.5 7.5z"/><path d="m145.67 432.73h-32.04c-4.142 0-7.5 3.358-7.5 7.5s3.358 7.5 7.5 7.5h32.04c4.142 0 7.5-3.358 7.5-7.5s-3.358-7.5-7.5-7.5z"/><path d="m170.21 440.23c0 4.142 3.358 7.5 7.5 7.5h146.183c4.143 0 7.5-3.358 7.5-7.5s-3.357-7.5-7.5-7.5h-146.183c-4.142 0-7.5 3.358-7.5 7.5z"/><path d="m398.869 91.304c-1.136 0-2.267.022-3.396.055v-18.36c0-4.142-3.357-7.5-7.5-7.5s-7.5 3.358-7.5 7.5v19.808c-19.474 3.198-37.288 11.384-52.084 23.201v-34.226c0-8.552-6.958-15.51-15.51-15.51h-186.233c-8.552 0-15.51 6.958-15.51 15.51v48.06c0 8.552 6.958 15.51 15.51 15.51h175.782c-10.581 17.207-16.692 37.444-16.692 59.083 0 56.118 41.074 102.815 94.736 111.628v18.565c-.17-.006-.336-.026-.508-.026h-292.367c-11.334 0-22.332 2.157-32.549 6.243v-315.917c9.798-4.937 20.85-7.736 32.549-7.736h284.359c4.696 0 8.518 3.821 8.518 8.517v12.598c0 4.142 3.357 7.5 7.5 7.5s7.5-3.358 7.5-7.5v-12.597c0-12.967-10.55-23.517-23.518-23.517h-284.359c-48.301 0-87.597 39.296-87.597 87.597v183.556c0 4.142 3.358 7.5 7.5 7.5s7.5-3.358 7.5-7.5v-183.556c0-21.853 9.72-41.467 25.047-54.788v313.622c-5.132 3.331-9.961 7.209-14.39 11.637-3.998 3.998-7.551 8.321-10.658 12.898v-65.123c0-4.142-3.358-7.5-7.5-7.5s-7.5 3.358-7.5 7.5v114.174c0 48.301 39.296 87.597 87.597 87.597h292.368c8.552 0 15.509-6.957 15.509-15.509v-16.017c0-7.354-5.143-13.516-12.016-15.107v-81.938c6.873-1.59 12.016-7.748 12.016-15.097l-.001-48.627c1.129.033 2.26.055 3.397.055 62.381.001 113.131-50.75 113.131-113.131s-50.75-113.132-113.131-113.132zm-18.396 402.994c0 .281-.229.509-.509.509h-292.367c-40.03 0-72.597-32.567-72.597-72.597 0-19.396 7.552-37.63 21.264-51.343 13.712-13.712 31.943-21.264 51.332-21.264h292.368c.28 0 .509.232.509.519v16.018c0 .28-.229.508-.509.508h-92.943c-4.143 0-7.5 3.358-7.5 7.5s3.357 7.5 7.5 7.5h81.436v81.115h-280.86c-10.958 0-21.233-4.321-28.934-12.168-7.699-7.844-11.825-18.206-11.619-29.172.421-21.932 18.974-39.775 41.357-39.775h163.93c4.142 0 7.501-3.358 7.501-7.5s-3.358-7.5-7.501-7.5h-163.931c-30.497 0-55.777 24.443-56.354 54.49-.282 15.029 5.368 29.221 15.911 39.964 10.544 10.744 24.622 16.661 39.64 16.661h292.368c.28 0 .509.232.509.519v16.016zm-254.337-364.455v-48.06c0-.281.229-.51.51-.51h186.233c.281 0 .51.229.51.51v48.06c0 .281-.229.51-.51.51h-186.233c-.281-.001-.51-.229-.51-.51zm272.733 172.725c-54.111 0-98.132-44.022-98.132-98.132s44.022-98.132 98.132-98.132 98.131 44.022 98.131 98.132-44.022 98.132-98.131 98.132z"/><path d="m468.502 182.141c-2.038-6.273-7.36-10.759-13.888-11.708l-26.713-3.882c-.718-.104-1.338-.554-1.659-1.205l-11.946-24.206c-2.92-5.916-8.831-9.59-15.428-9.59-6.596 0-12.507 3.674-15.427 9.59l-11.946 24.207c-.321.65-.941 1.101-1.659 1.205l-26.713 3.882c-6.527.948-11.85 5.434-13.888 11.708-2.039 6.274-.371 13.032 4.353 17.636l19.33 18.842c.52.506.757 1.235.635 1.95l-4.564 26.606c-1.114 6.502 1.509 12.949 6.846 16.827 3.015 2.191 6.543 3.304 10.095 3.304 2.733 0 5.482-.66 8.022-1.995l23.895-12.562c.642-.338 1.407-.337 2.049 0l23.894 12.561c5.836 3.069 12.78 2.568 18.116-1.309 5.337-3.877 7.96-10.325 6.845-16.827l-4.563-26.605c-.122-.715.115-1.444.635-1.95l19.33-18.842c4.72-4.605 6.388-11.363 4.349-17.637zm-14.824 6.895-19.33 18.842c-4.056 3.954-5.905 9.647-4.947 15.228l4.563 26.605c.191 1.116-.371 1.789-.876 2.156-.507.368-1.321.695-2.32.167l-23.893-12.561c-5.013-2.637-10.999-2.637-16.012 0l-23.894 12.562c-1 .526-1.814.2-2.32-.168-.505-.367-1.068-1.04-.877-2.155l4.564-26.605c.958-5.581-.892-11.274-4.947-15.228l-19.33-18.842c-.811-.79-.751-1.665-.558-2.259s.658-1.336 1.778-1.5l26.713-3.881c5.605-.814 10.448-4.333 12.954-9.411l11.946-24.206c.501-1.016 1.352-1.229 1.976-1.229.625 0 1.476.213 1.977 1.229l11.946 24.206c2.506 5.079 7.349 8.598 12.954 9.411l26.713 3.882c1.12.163 1.585.905 1.778 1.5.193.593.253 1.467-.558 2.257z"/></g></g></svg>